<svg width="28" height="28" viewBox="0 0 28 28" fill="none" xmlns="http://www.w3.org/2000/svg">
<path d="M17.5 21.0003H4.66667C3.42899 21.0003 2.242 20.5087 1.36684 19.6335C0.491665 18.7583 0 17.5713 0 16.3337V7.00033C0 5.45323 0.614582 3.9695 1.70854 2.87554C2.80251 1.78157 4.28624 1.16699 5.83333 1.16699H11.6667C12.4327 1.16699 13.1913 1.31788 13.899 1.61103C14.6067 1.90418 15.2498 2.33386 15.7915 2.87554C16.3331 3.41721 16.7628 4.06027 17.056 4.76801C17.3491 5.47574 17.5 6.23428 17.5 7.00033V21.0003ZM28 12.8337V11.667C28 10.9009 27.8491 10.1424 27.556 9.43467C27.2628 8.72694 26.8331 8.08388 26.2915 7.5422C25.7498 7.00053 25.1067 6.57085 24.399 6.2777C23.6913 5.98454 22.9327 5.83366 22.1667 5.83366H19.8333V12.8337H28ZM19.8333 15.167V21.0003H23.3333C24.571 21.0003 25.758 20.5087 26.6332 19.6335C27.5083 18.7583 28 17.5713 28 16.3337V15.167H19.8333ZM4.73433 23.3337C4.6916 23.5252 4.66892 23.7207 4.66667 23.917C4.66667 24.6905 4.97396 25.4324 5.52094 25.9794C6.06792 26.5264 6.80978 26.8337 7.58333 26.8337C8.35688 26.8337 9.09875 26.5264 9.64573 25.9794C10.1927 25.4324 10.5 24.6905 10.5 23.917C10.4977 23.7207 10.4751 23.5252 10.4323 23.3337H4.73433ZM17.5677 23.3337C17.5249 23.5252 17.5023 23.7207 17.5 23.917C17.5 24.6905 17.8073 25.4324 18.3543 25.9794C18.9013 26.5264 19.6431 26.8337 20.4167 26.8337C21.1902 26.8337 21.9321 26.5264 22.4791 25.9794C23.026 25.4324 23.3333 24.6905 23.3333 23.917C23.3311 23.7207 23.3084 23.5252 23.2657 23.3337H17.5677Z" fill="#8E1A1A"/>
</svg>
