<svg width="28" height="28" viewBox="0 0 28 28" fill="none" xmlns="http://www.w3.org/2000/svg">
<path d="M28 25.6668C28 25.9762 27.8771 26.273 27.6583 26.4918C27.4395 26.7106 27.1428 26.8335 26.8333 26.8335H1.16667C0.857247 26.8335 0.560501 26.7106 0.341709 26.4918C0.122916 26.273 0 25.9762 0 25.6668C0 25.3574 0.122916 25.0606 0.341709 24.8419C0.560501 24.6231 0.857247 24.5001 1.16667 24.5001H26.8333C27.1428 24.5001 27.4395 24.6231 27.6583 24.8419C27.8771 25.0606 28 25.3574 28 25.6668ZM2.33333 22.1668H25.6667C25.9761 22.1668 26.2728 22.0439 26.4916 21.8251C26.7104 21.6063 26.8333 21.3096 26.8333 21.0001V19.8335C26.8291 16.6337 25.6307 13.5507 23.4729 11.188C21.315 8.82537 18.353 7.35317 15.1667 7.05964V5.51031C15.6115 5.25349 15.9592 4.85706 16.1557 4.38251C16.3523 3.90796 16.3868 3.38182 16.2538 2.88567C16.1209 2.38953 15.8279 1.95111 15.4204 1.63843C15.0129 1.32574 14.5136 1.15625 14 1.15625C13.4864 1.15625 12.9871 1.32574 12.5796 1.63843C12.1721 1.95111 11.8791 2.38953 11.7462 2.88567C11.6132 3.38182 11.6477 3.90796 11.8443 4.38251C12.0408 4.85706 12.3885 5.25349 12.8333 5.51031V7.05964C9.64704 7.35317 6.68502 8.82537 4.52714 11.188C2.36926 13.5507 1.1709 16.6337 1.16667 19.8335V21.0001C1.16667 21.3096 1.28958 21.6063 1.50838 21.8251C1.72717 22.0439 2.02391 22.1668 2.33333 22.1668Z" fill="#8E1A1A"/>
</svg>
