<svg width="28" height="28" viewBox="0 0 28 28" fill="none" xmlns="http://www.w3.org/2000/svg">
<g clip-path="url(#clip0_229_362)">
<path d="M23.3333 3.5H4.66667C2.093 3.5 0 5.593 0 8.16667V17.5C0 20.0737 2.093 22.1667 4.66667 22.1667H8.07683L12.4507 25.8498C12.8805 26.2315 13.4356 26.442 14.0105 26.4413C14.5652 26.4442 15.1016 26.2432 15.5178 25.8767L20.0072 22.1667H23.3345C25.9082 22.1667 28.0012 20.0737 28.0012 17.5V8.16667C28.0012 5.593 25.907 3.5 23.3333 3.5ZM9.12567 12.6887L7.7455 13.8133L8.316 15.5517C8.35437 15.6664 8.35599 15.7901 8.32065 15.9058C8.2853 16.0214 8.21475 16.1232 8.11883 16.1968C8.02286 16.2702 7.90659 16.3121 7.78591 16.3169C7.66523 16.3217 7.546 16.2891 7.4445 16.2237L5.838 15.1772L4.25833 16.2342C4.1579 16.3014 4.03906 16.3358 3.91824 16.3326C3.79741 16.3294 3.68057 16.2887 3.58386 16.2162C3.48715 16.1437 3.41535 16.043 3.37839 15.9279C3.34142 15.8128 3.34111 15.6891 3.3775 15.5738L3.92583 13.8145L2.53867 12.6863C2.44774 12.6091 2.3827 12.5058 2.35232 12.3904C2.32193 12.275 2.32766 12.1531 2.36873 12.041C2.40981 11.929 2.48425 11.8323 2.58202 11.7639C2.67979 11.6955 2.79618 11.6587 2.9155 11.6585H4.6655L5.285 9.92017C5.32633 9.80834 5.40093 9.71185 5.49876 9.64371C5.59659 9.57557 5.71294 9.53904 5.83217 9.53904C5.95139 9.53904 6.06775 9.57557 6.16558 9.64371C6.26341 9.71185 6.33801 9.80834 6.37933 9.92017L6.99883 11.6585H8.74883C8.8686 11.6584 8.98551 11.6951 9.08367 11.7637C9.18184 11.8323 9.25651 11.9295 9.29754 12.042C9.33857 12.1545 9.34398 12.2769 9.31302 12.3926C9.28206 12.5083 9.21741 12.6117 9.12567 12.6887ZM17.2923 12.6887L15.9122 13.8133L16.4827 15.5517C16.521 15.6664 16.5227 15.7901 16.4873 15.9058C16.452 16.0214 16.3814 16.1232 16.2855 16.1968C16.1895 16.2702 16.0733 16.3121 15.9526 16.3169C15.8319 16.3217 15.7127 16.2891 15.6112 16.2237L14.0047 15.1772L12.425 16.2342C12.3246 16.3014 12.2057 16.3358 12.0849 16.3326C11.9641 16.3294 11.8472 16.2887 11.7505 16.2162C11.6538 16.1437 11.582 16.043 11.5451 15.9279C11.5081 15.8128 11.5078 15.6891 11.5442 15.5738L12.0925 13.8145L10.7053 12.6863C10.6144 12.6091 10.5494 12.5058 10.519 12.3904C10.4886 12.275 10.4943 12.1531 10.5354 12.041C10.5765 11.929 10.6509 11.8323 10.7487 11.7639C10.8465 11.6955 10.9628 11.6587 11.0822 11.6585H12.8322L13.4517 9.92017C13.493 9.80834 13.5676 9.71185 13.6654 9.64371C13.7633 9.57557 13.8796 9.53904 13.9988 9.53904C14.1181 9.53904 14.2344 9.57557 14.3322 9.64371C14.4301 9.71185 14.5047 9.80834 14.546 9.92017L15.1655 11.6585H16.9155C17.0353 11.6584 17.1522 11.6951 17.2503 11.7637C17.3485 11.8323 17.4232 11.9295 17.4642 12.042C17.5052 12.1545 17.5106 12.2769 17.4797 12.3926C17.4487 12.5083 17.3841 12.6117 17.2923 12.6887ZM25.459 12.6887L24.0788 13.8133L24.6493 15.5517C24.6877 15.6664 24.6893 15.7901 24.654 15.9058C24.6186 16.0214 24.5481 16.1232 24.4522 16.1968C24.3562 16.2702 24.2399 16.3121 24.1192 16.3169C23.9986 16.3217 23.8793 16.2891 23.7778 16.2237L22.1713 15.1772L20.5917 16.2342C20.4912 16.3014 20.3724 16.3358 20.2516 16.3326C20.1307 16.3294 20.0139 16.2887 19.9172 16.2162C19.8205 16.1437 19.7487 16.043 19.7117 15.9279C19.6748 15.8128 19.6744 15.6891 19.7108 15.5738L20.2592 13.8145L18.872 12.6863C18.7811 12.6091 18.716 12.5058 18.6857 12.3904C18.6553 12.275 18.661 12.1531 18.7021 12.041C18.7431 11.929 18.8176 11.8323 18.9154 11.7639C19.0131 11.6955 19.1295 11.6587 19.2488 11.6585H20.9988L21.6183 9.92017C21.6597 9.80834 21.7343 9.71185 21.8321 9.64371C21.9299 9.57557 22.0463 9.53904 22.1655 9.53904C22.2847 9.53904 22.4011 9.57557 22.4989 9.64371C22.5967 9.71185 22.6713 9.80834 22.7127 9.92017L23.3322 11.6585H25.0822C25.2019 11.6584 25.3188 11.6951 25.417 11.7637C25.5152 11.8323 25.5898 11.9295 25.6309 12.042C25.6719 12.1545 25.6773 12.2769 25.6464 12.3926C25.6154 12.5083 25.5496 12.6117 25.4578 12.6887H25.459Z" fill="#8E1A1A"/>
</g>
<defs>
<clipPath id="clip0_229_362">
<rect width="28" height="28" fill="white"/>
</clipPath>
</defs>
</svg>
